<mxfile host="app.diagrams.net" modified="2023-10-24T08:15:56.113Z" agent="Mozilla/5.0 (Windows NT 10.0; Win64; x64) AppleWebKit/537.36 (KHTML, like Gecko) Chrome/118.0.0.0 Safari/537.36" etag="eLUA303booQAAf4Y3unc" version="22.0.6" type="github" pages="3">
  <diagram name="整体目标" id="ZECeIezxFVb5cCU21ToK">
    <mxGraphModel dx="2224" dy="718" grid="1" gridSize="10" guides="1" tooltips="1" connect="1" arrows="1" fold="1" page="1" pageScale="1" pageWidth="827" pageHeight="1169" math="0" shadow="0">
      <root>
        <mxCell id="0" />
        <mxCell id="1" parent="0" />
        <mxCell id="LIiTLWeFczbkfzFUqkuJ-9" style="edgeStyle=orthogonalEdgeStyle;rounded=0;orthogonalLoop=1;jettySize=auto;html=1;" edge="1" parent="1" source="0PkkpPt8MjeFEd_coFtU-2" target="LIiTLWeFczbkfzFUqkuJ-3">
          <mxGeometry relative="1" as="geometry" />
        </mxCell>
        <mxCell id="0PkkpPt8MjeFEd_coFtU-2" value="GPT" style="verticalLabelPosition=bottom;aspect=fixed;html=1;shape=mxgraph.salesforce.bots;" vertex="1" parent="1">
          <mxGeometry x="371" y="190" width="84.21" height="80" as="geometry" />
        </mxCell>
        <mxCell id="0PkkpPt8MjeFEd_coFtU-4" value="output-content" style="rounded=1;whiteSpace=wrap;html=1;fillColor=#cce5ff;strokeColor=#36393d;" vertex="1" parent="1">
          <mxGeometry x="70" y="340" width="90" height="50" as="geometry" />
        </mxCell>
        <mxCell id="LIiTLWeFczbkfzFUqkuJ-2" value="" style="edgeStyle=orthogonalEdgeStyle;rounded=0;orthogonalLoop=1;jettySize=auto;html=1;entryX=0.313;entryY=1.049;entryDx=0;entryDy=0;entryPerimeter=0;" edge="1" parent="1" source="LIiTLWeFczbkfzFUqkuJ-3" target="0PkkpPt8MjeFEd_coFtU-2">
          <mxGeometry relative="1" as="geometry">
            <mxPoint x="-20" y="250" as="sourcePoint" />
            <Array as="points">
              <mxPoint x="-100" y="400" />
              <mxPoint x="379" y="400" />
              <mxPoint x="379" y="274" />
            </Array>
          </mxGeometry>
        </mxCell>
        <mxCell id="LIiTLWeFczbkfzFUqkuJ-3" value="User" style="shape=umlActor;verticalLabelPosition=bottom;verticalAlign=top;html=1;outlineConnect=0;" vertex="1" parent="1">
          <mxGeometry x="-110" y="170" width="30" height="60" as="geometry" />
        </mxCell>
        <mxCell id="LIiTLWeFczbkfzFUqkuJ-5" value="input-content" style="rounded=1;whiteSpace=wrap;html=1;fillColor=#cdeb8b;strokeColor=#36393d;" vertex="1" parent="1">
          <mxGeometry x="60" y="150.17" width="110" height="40" as="geometry" />
        </mxCell>
        <mxCell id="LIiTLWeFczbkfzFUqkuJ-7" value="Promopts" style="rounded=1;whiteSpace=wrap;html=1;fillColor=#ffff88;strokeColor=#36393d;" vertex="1" parent="1">
          <mxGeometry x="440" y="150.17000000000002" width="120" height="60" as="geometry" />
        </mxCell>
      </root>
    </mxGraphModel>
  </diagram>
  <diagram id="eMzQMRMfgV4sr7IyFXeA" name="逻辑设计">
    <mxGraphModel dx="1397" dy="718" grid="1" gridSize="10" guides="1" tooltips="1" connect="1" arrows="1" fold="1" page="1" pageScale="1" pageWidth="827" pageHeight="1169" math="0" shadow="0">
      <root>
        <mxCell id="0" />
        <mxCell id="1" parent="0" />
        <mxCell id="rhPRPYmiHvdW3u_E0UMr-2" value="GPT" style="verticalLabelPosition=bottom;aspect=fixed;html=1;shape=mxgraph.salesforce.bots;" vertex="1" parent="1">
          <mxGeometry x="540" y="220" width="60" height="57" as="geometry" />
        </mxCell>
        <mxCell id="6OgwTLhWqKXwyT9aTN82-21" style="edgeStyle=orthogonalEdgeStyle;rounded=0;orthogonalLoop=1;jettySize=auto;html=1;" edge="1" parent="1" source="rhPRPYmiHvdW3u_E0UMr-3" target="6OgwTLhWqKXwyT9aTN82-18">
          <mxGeometry relative="1" as="geometry" />
        </mxCell>
        <mxCell id="rhPRPYmiHvdW3u_E0UMr-3" value="reference-data" style="rounded=1;whiteSpace=wrap;html=1;fillColor=#d5e8d4;strokeColor=#82b366;" vertex="1" parent="1">
          <mxGeometry x="310" y="430" width="120" height="60" as="geometry" />
        </mxCell>
        <mxCell id="6OgwTLhWqKXwyT9aTN82-16" style="edgeStyle=orthogonalEdgeStyle;rounded=0;orthogonalLoop=1;jettySize=auto;html=1;entryX=0;entryY=0.5;entryDx=0;entryDy=0;" edge="1" parent="1" source="6OgwTLhWqKXwyT9aTN82-1" target="6OgwTLhWqKXwyT9aTN82-3">
          <mxGeometry relative="1" as="geometry" />
        </mxCell>
        <mxCell id="6OgwTLhWqKXwyT9aTN82-17" style="edgeStyle=orthogonalEdgeStyle;rounded=0;orthogonalLoop=1;jettySize=auto;html=1;entryX=0;entryY=0.5;entryDx=0;entryDy=0;" edge="1" parent="1" source="6OgwTLhWqKXwyT9aTN82-1" target="6OgwTLhWqKXwyT9aTN82-9">
          <mxGeometry relative="1" as="geometry" />
        </mxCell>
        <mxCell id="6OgwTLhWqKXwyT9aTN82-1" value="Output&lt;br&gt;Structure" style="rounded=1;whiteSpace=wrap;html=1;fillColor=#ffe6cc;strokeColor=#d79b00;" vertex="1" parent="1">
          <mxGeometry x="580" y="530" width="120" height="60" as="geometry" />
        </mxCell>
        <mxCell id="6OgwTLhWqKXwyT9aTN82-23" style="edgeStyle=orthogonalEdgeStyle;rounded=0;orthogonalLoop=1;jettySize=auto;html=1;entryX=0.5;entryY=0;entryDx=0;entryDy=0;exitX=0.5;exitY=1;exitDx=0;exitDy=0;" edge="1" parent="1" source="6OgwTLhWqKXwyT9aTN82-2" target="6OgwTLhWqKXwyT9aTN82-18">
          <mxGeometry relative="1" as="geometry" />
        </mxCell>
        <mxCell id="6OgwTLhWqKXwyT9aTN82-2" value="Input-&lt;br&gt;Structure" style="rounded=1;whiteSpace=wrap;html=1;fillColor=#d5e8d4;strokeColor=#82b366;" vertex="1" parent="1">
          <mxGeometry x="70" y="430" width="120" height="60" as="geometry" />
        </mxCell>
        <mxCell id="6OgwTLhWqKXwyT9aTN82-11" style="edgeStyle=orthogonalEdgeStyle;rounded=0;orthogonalLoop=1;jettySize=auto;html=1;entryX=0;entryY=0.5;entryDx=0;entryDy=0;fillColor=#1ba1e2;strokeColor=#006EAF;" edge="1" parent="1" source="6OgwTLhWqKXwyT9aTN82-3" target="6OgwTLhWqKXwyT9aTN82-6">
          <mxGeometry relative="1" as="geometry" />
        </mxCell>
        <mxCell id="6OgwTLhWqKXwyT9aTN82-12" style="edgeStyle=orthogonalEdgeStyle;rounded=0;orthogonalLoop=1;jettySize=auto;html=1;fillColor=#1ba1e2;strokeColor=#006EAF;" edge="1" parent="1" source="6OgwTLhWqKXwyT9aTN82-3" target="6OgwTLhWqKXwyT9aTN82-7">
          <mxGeometry relative="1" as="geometry" />
        </mxCell>
        <mxCell id="6OgwTLhWqKXwyT9aTN82-13" style="edgeStyle=orthogonalEdgeStyle;rounded=0;orthogonalLoop=1;jettySize=auto;html=1;entryX=0;entryY=0.5;entryDx=0;entryDy=0;fillColor=#1ba1e2;strokeColor=#006EAF;" edge="1" parent="1" source="6OgwTLhWqKXwyT9aTN82-3" target="6OgwTLhWqKXwyT9aTN82-8">
          <mxGeometry relative="1" as="geometry" />
        </mxCell>
        <mxCell id="6OgwTLhWqKXwyT9aTN82-3" value="form" style="rounded=1;whiteSpace=wrap;html=1;fillColor=#1ba1e2;fontColor=#ffffff;strokeColor=#006EAF;" vertex="1" parent="1">
          <mxGeometry x="800" y="400" width="120" height="60" as="geometry" />
        </mxCell>
        <mxCell id="6OgwTLhWqKXwyT9aTN82-4" value="data- type" style="rounded=1;whiteSpace=wrap;html=1;fillColor=#60a917;strokeColor=#2D7600;fontColor=#ffffff;" vertex="1" parent="1">
          <mxGeometry x="1020" y="730" width="120" height="60" as="geometry" />
        </mxCell>
        <mxCell id="6OgwTLhWqKXwyT9aTN82-5" value="data-content-range" style="rounded=1;whiteSpace=wrap;html=1;fillColor=#60a917;strokeColor=#2D7600;fontColor=#ffffff;" vertex="1" parent="1">
          <mxGeometry x="1020" y="610" width="120" height="60" as="geometry" />
        </mxCell>
        <mxCell id="6OgwTLhWqKXwyT9aTN82-6" value="list" style="rounded=1;whiteSpace=wrap;html=1;fillColor=#1ba1e2;fontColor=#ffffff;strokeColor=#006EAF;" vertex="1" parent="1">
          <mxGeometry x="1020" y="320" width="120" height="60" as="geometry" />
        </mxCell>
        <mxCell id="6OgwTLhWqKXwyT9aTN82-7" value="table" style="rounded=1;whiteSpace=wrap;html=1;fillColor=#1ba1e2;fontColor=#ffffff;strokeColor=#006EAF;" vertex="1" parent="1">
          <mxGeometry x="1020" y="400" width="120" height="60" as="geometry" />
        </mxCell>
        <mxCell id="6OgwTLhWqKXwyT9aTN82-8" value="graph" style="rounded=1;whiteSpace=wrap;html=1;fillColor=#1ba1e2;fontColor=#ffffff;strokeColor=#006EAF;" vertex="1" parent="1">
          <mxGeometry x="1020" y="480" width="120" height="60" as="geometry" />
        </mxCell>
        <mxCell id="6OgwTLhWqKXwyT9aTN82-14" style="edgeStyle=orthogonalEdgeStyle;rounded=0;orthogonalLoop=1;jettySize=auto;html=1;entryX=0;entryY=0.5;entryDx=0;entryDy=0;fillColor=#60a917;strokeColor=#2D7600;" edge="1" parent="1" source="6OgwTLhWqKXwyT9aTN82-9" target="6OgwTLhWqKXwyT9aTN82-5">
          <mxGeometry relative="1" as="geometry" />
        </mxCell>
        <mxCell id="6OgwTLhWqKXwyT9aTN82-15" style="edgeStyle=orthogonalEdgeStyle;rounded=0;orthogonalLoop=1;jettySize=auto;html=1;entryX=0;entryY=0.5;entryDx=0;entryDy=0;fillColor=#60a917;strokeColor=#2D7600;" edge="1" parent="1" source="6OgwTLhWqKXwyT9aTN82-9" target="6OgwTLhWqKXwyT9aTN82-4">
          <mxGeometry relative="1" as="geometry" />
        </mxCell>
        <mxCell id="6OgwTLhWqKXwyT9aTN82-9" value="content" style="rounded=1;whiteSpace=wrap;html=1;fillColor=#60a917;strokeColor=#2D7600;fontColor=#ffffff;" vertex="1" parent="1">
          <mxGeometry x="800" y="670" width="120" height="60" as="geometry" />
        </mxCell>
        <mxCell id="6OgwTLhWqKXwyT9aTN82-24" style="edgeStyle=orthogonalEdgeStyle;rounded=0;orthogonalLoop=1;jettySize=auto;html=1;entryX=0.5;entryY=0;entryDx=0;entryDy=0;" edge="1" parent="1" source="6OgwTLhWqKXwyT9aTN82-18" target="6OgwTLhWqKXwyT9aTN82-20">
          <mxGeometry relative="1" as="geometry" />
        </mxCell>
        <mxCell id="6OgwTLhWqKXwyT9aTN82-18" value="info-search" style="rounded=1;whiteSpace=wrap;html=1;" vertex="1" parent="1">
          <mxGeometry x="194" y="570" width="120" height="60" as="geometry" />
        </mxCell>
        <mxCell id="6OgwTLhWqKXwyT9aTN82-20" value="how to process" style="rounded=1;whiteSpace=wrap;html=1;" vertex="1" parent="1">
          <mxGeometry x="194" y="680" width="120" height="60" as="geometry" />
        </mxCell>
        <mxCell id="6OgwTLhWqKXwyT9aTN82-25" value="" style="shape=flexArrow;endArrow=classic;html=1;rounded=0;fillColor=#f8cecc;strokeColor=#b85450;" edge="1" parent="1">
          <mxGeometry width="50" height="50" relative="1" as="geometry">
            <mxPoint x="460" y="560" as="sourcePoint" />
            <mxPoint x="540" y="560" as="targetPoint" />
          </mxGeometry>
        </mxCell>
        <mxCell id="6OgwTLhWqKXwyT9aTN82-26" value="input" style="ellipse;whiteSpace=wrap;html=1;fillColor=#d5e8d4;gradientColor=#97d077;strokeColor=#82b366;" vertex="1" parent="1">
          <mxGeometry x="200" y="300" width="120" height="80" as="geometry" />
        </mxCell>
      </root>
    </mxGraphModel>
  </diagram>
  <diagram id="WErcEsczziZW0sRNR-9l" name="详细设计">
    <mxGraphModel dx="2224" dy="718" grid="1" gridSize="10" guides="1" tooltips="1" connect="1" arrows="1" fold="1" page="1" pageScale="1" pageWidth="827" pageHeight="1169" math="0" shadow="0">
      <root>
        <mxCell id="0" />
        <mxCell id="1" parent="0" />
        <mxCell id="xtPBRBsNaYqa5YSmTsiq-2" value="reference - articles /books / news" style="rounded=1;whiteSpace=wrap;html=1;" vertex="1" parent="1">
          <mxGeometry x="286" y="500" width="120" height="60" as="geometry" />
        </mxCell>
        <mxCell id="xtPBRBsNaYqa5YSmTsiq-3" style="edgeStyle=orthogonalEdgeStyle;rounded=0;orthogonalLoop=1;jettySize=auto;html=1;entryX=0;entryY=0.5;entryDx=0;entryDy=0;" edge="1" parent="1" source="xtPBRBsNaYqa5YSmTsiq-5" target="xtPBRBsNaYqa5YSmTsiq-11">
          <mxGeometry relative="1" as="geometry" />
        </mxCell>
        <mxCell id="xtPBRBsNaYqa5YSmTsiq-4" style="edgeStyle=orthogonalEdgeStyle;rounded=0;orthogonalLoop=1;jettySize=auto;html=1;entryX=0;entryY=0.5;entryDx=0;entryDy=0;" edge="1" parent="1" source="xtPBRBsNaYqa5YSmTsiq-5" target="xtPBRBsNaYqa5YSmTsiq-19">
          <mxGeometry relative="1" as="geometry" />
        </mxCell>
        <mxCell id="xtPBRBsNaYqa5YSmTsiq-5" value="Output&lt;br&gt;Structure" style="rounded=1;whiteSpace=wrap;html=1;fillColor=#ffe6cc;strokeColor=#d79b00;" vertex="1" parent="1">
          <mxGeometry x="940" y="690" width="120" height="60" as="geometry" />
        </mxCell>
        <mxCell id="xtPBRBsNaYqa5YSmTsiq-6" style="edgeStyle=orthogonalEdgeStyle;rounded=0;orthogonalLoop=1;jettySize=auto;html=1;exitX=0.5;exitY=1;exitDx=0;exitDy=0;entryX=0.5;entryY=0;entryDx=0;entryDy=0;" edge="1" parent="1" source="xtPBRBsNaYqa5YSmTsiq-7" target="xtPBRBsNaYqa5YSmTsiq-28">
          <mxGeometry relative="1" as="geometry">
            <mxPoint x="140" y="680" as="targetPoint" />
          </mxGeometry>
        </mxCell>
        <mxCell id="xtPBRBsNaYqa5YSmTsiq-7" value="Input-&lt;br&gt;Structure" style="rounded=1;whiteSpace=wrap;html=1;fillColor=#d5e8d4;strokeColor=#82b366;" vertex="1" parent="1">
          <mxGeometry x="-40" y="500" width="120" height="60" as="geometry" />
        </mxCell>
        <mxCell id="xtPBRBsNaYqa5YSmTsiq-8" style="edgeStyle=orthogonalEdgeStyle;rounded=0;orthogonalLoop=1;jettySize=auto;html=1;entryX=0;entryY=0.5;entryDx=0;entryDy=0;fillColor=#1ba1e2;strokeColor=#006EAF;" edge="1" parent="1" source="xtPBRBsNaYqa5YSmTsiq-11" target="xtPBRBsNaYqa5YSmTsiq-14">
          <mxGeometry relative="1" as="geometry" />
        </mxCell>
        <mxCell id="xtPBRBsNaYqa5YSmTsiq-9" style="edgeStyle=orthogonalEdgeStyle;rounded=0;orthogonalLoop=1;jettySize=auto;html=1;fillColor=#1ba1e2;strokeColor=#006EAF;" edge="1" parent="1" source="xtPBRBsNaYqa5YSmTsiq-11" target="xtPBRBsNaYqa5YSmTsiq-15">
          <mxGeometry relative="1" as="geometry" />
        </mxCell>
        <mxCell id="xtPBRBsNaYqa5YSmTsiq-10" style="edgeStyle=orthogonalEdgeStyle;rounded=0;orthogonalLoop=1;jettySize=auto;html=1;entryX=0;entryY=0.5;entryDx=0;entryDy=0;fillColor=#1ba1e2;strokeColor=#006EAF;" edge="1" parent="1" source="xtPBRBsNaYqa5YSmTsiq-11" target="xtPBRBsNaYqa5YSmTsiq-16">
          <mxGeometry relative="1" as="geometry" />
        </mxCell>
        <mxCell id="xtPBRBsNaYqa5YSmTsiq-11" value="form" style="rounded=1;whiteSpace=wrap;html=1;fillColor=#1ba1e2;fontColor=#ffffff;strokeColor=#006EAF;" vertex="1" parent="1">
          <mxGeometry x="1160" y="560" width="120" height="60" as="geometry" />
        </mxCell>
        <mxCell id="xtPBRBsNaYqa5YSmTsiq-12" value="data- type" style="rounded=1;whiteSpace=wrap;html=1;fillColor=#60a917;strokeColor=#2D7600;fontColor=#ffffff;" vertex="1" parent="1">
          <mxGeometry x="1380" y="890" width="120" height="60" as="geometry" />
        </mxCell>
        <mxCell id="xtPBRBsNaYqa5YSmTsiq-13" value="data-content-range" style="rounded=1;whiteSpace=wrap;html=1;fillColor=#60a917;strokeColor=#2D7600;fontColor=#ffffff;" vertex="1" parent="1">
          <mxGeometry x="1380" y="770" width="120" height="60" as="geometry" />
        </mxCell>
        <mxCell id="xtPBRBsNaYqa5YSmTsiq-14" value="list" style="rounded=1;whiteSpace=wrap;html=1;fillColor=#1ba1e2;fontColor=#ffffff;strokeColor=#006EAF;" vertex="1" parent="1">
          <mxGeometry x="1380" y="480" width="120" height="60" as="geometry" />
        </mxCell>
        <mxCell id="xtPBRBsNaYqa5YSmTsiq-15" value="table" style="rounded=1;whiteSpace=wrap;html=1;fillColor=#1ba1e2;fontColor=#ffffff;strokeColor=#006EAF;" vertex="1" parent="1">
          <mxGeometry x="1380" y="560" width="120" height="60" as="geometry" />
        </mxCell>
        <mxCell id="xtPBRBsNaYqa5YSmTsiq-16" value="graph" style="rounded=1;whiteSpace=wrap;html=1;fillColor=#1ba1e2;fontColor=#ffffff;strokeColor=#006EAF;" vertex="1" parent="1">
          <mxGeometry x="1380" y="640" width="120" height="60" as="geometry" />
        </mxCell>
        <mxCell id="xtPBRBsNaYqa5YSmTsiq-17" style="edgeStyle=orthogonalEdgeStyle;rounded=0;orthogonalLoop=1;jettySize=auto;html=1;entryX=0;entryY=0.5;entryDx=0;entryDy=0;fillColor=#60a917;strokeColor=#2D7600;" edge="1" parent="1" source="xtPBRBsNaYqa5YSmTsiq-19" target="xtPBRBsNaYqa5YSmTsiq-13">
          <mxGeometry relative="1" as="geometry" />
        </mxCell>
        <mxCell id="xtPBRBsNaYqa5YSmTsiq-18" style="edgeStyle=orthogonalEdgeStyle;rounded=0;orthogonalLoop=1;jettySize=auto;html=1;entryX=0;entryY=0.5;entryDx=0;entryDy=0;fillColor=#60a917;strokeColor=#2D7600;" edge="1" parent="1" source="xtPBRBsNaYqa5YSmTsiq-19" target="xtPBRBsNaYqa5YSmTsiq-12">
          <mxGeometry relative="1" as="geometry" />
        </mxCell>
        <mxCell id="xtPBRBsNaYqa5YSmTsiq-19" value="content" style="rounded=1;whiteSpace=wrap;html=1;fillColor=#60a917;strokeColor=#2D7600;fontColor=#ffffff;" vertex="1" parent="1">
          <mxGeometry x="1160" y="830" width="120" height="60" as="geometry" />
        </mxCell>
        <mxCell id="xtPBRBsNaYqa5YSmTsiq-23" value="" style="shape=flexArrow;endArrow=classic;html=1;rounded=0;fillColor=#f8cecc;strokeColor=#b85450;" edge="1" parent="1">
          <mxGeometry width="50" height="50" relative="1" as="geometry">
            <mxPoint x="760" y="730" as="sourcePoint" />
            <mxPoint x="840" y="730" as="targetPoint" />
          </mxGeometry>
        </mxCell>
        <mxCell id="xtPBRBsNaYqa5YSmTsiq-24" value="input" style="ellipse;whiteSpace=wrap;html=1;fillColor=#d5e8d4;gradientColor=#97d077;strokeColor=#82b366;" vertex="1" parent="1">
          <mxGeometry x="180" y="330" width="120" height="80" as="geometry" />
        </mxCell>
        <mxCell id="xtPBRBsNaYqa5YSmTsiq-25" value="background info" style="rounded=1;whiteSpace=wrap;html=1;" vertex="1" parent="1">
          <mxGeometry x="150" y="500" width="120" height="60" as="geometry" />
        </mxCell>
        <mxCell id="xtPBRBsNaYqa5YSmTsiq-26" value="模仿XXX" style="rounded=1;whiteSpace=wrap;html=1;" vertex="1" parent="1">
          <mxGeometry x="416" y="500" width="120" height="60" as="geometry" />
        </mxCell>
        <mxCell id="xtPBRBsNaYqa5YSmTsiq-27" value="what info to extract" style="rounded=1;whiteSpace=wrap;html=1;" vertex="1" parent="1">
          <mxGeometry x="320" y="820" width="120" height="60" as="geometry" />
        </mxCell>
        <mxCell id="xtPBRBsNaYqa5YSmTsiq-32" style="edgeStyle=orthogonalEdgeStyle;rounded=0;orthogonalLoop=1;jettySize=auto;html=1;curved=1;dashed=1;fillColor=#ffcccc;strokeColor=#FFB570;" edge="1" parent="1" source="xtPBRBsNaYqa5YSmTsiq-31" target="xtPBRBsNaYqa5YSmTsiq-30">
          <mxGeometry relative="1" as="geometry">
            <mxPoint y="840" as="targetPoint" />
          </mxGeometry>
        </mxCell>
        <mxCell id="xtPBRBsNaYqa5YSmTsiq-31" value="&lt;font style=&quot;font-size: 20px;&quot;&gt;if&amp;nbsp; &amp;nbsp;...&lt;br&gt;else if ....&lt;br&gt;else ...&lt;/font&gt;" style="text;html=1;align=center;verticalAlign=middle;resizable=0;points=[];autosize=1;strokeColor=#36393d;fillColor=#ffcc99;" vertex="1" parent="1">
          <mxGeometry x="-140" y="730" width="100" height="90" as="geometry" />
        </mxCell>
        <mxCell id="xtPBRBsNaYqa5YSmTsiq-33" value="" style="group" vertex="1" connectable="0" parent="1">
          <mxGeometry x="130" y="810" width="150" height="80" as="geometry" />
        </mxCell>
        <mxCell id="xtPBRBsNaYqa5YSmTsiq-28" value="cases&amp;nbsp;" style="rounded=1;whiteSpace=wrap;html=1;fillColor=#ffcccc;strokeColor=#36393d;" vertex="1" parent="xtPBRBsNaYqa5YSmTsiq-33">
          <mxGeometry width="120" height="60" as="geometry" />
        </mxCell>
        <mxCell id="xtPBRBsNaYqa5YSmTsiq-29" value="cases&amp;nbsp;" style="rounded=1;whiteSpace=wrap;html=1;fillColor=#ffcccc;strokeColor=#36393d;" vertex="1" parent="xtPBRBsNaYqa5YSmTsiq-33">
          <mxGeometry x="10" y="10" width="120" height="60" as="geometry" />
        </mxCell>
        <mxCell id="xtPBRBsNaYqa5YSmTsiq-30" value="logic&amp;nbsp;&lt;br&gt;cases" style="rounded=1;whiteSpace=wrap;html=1;fillColor=#ffcccc;strokeColor=#36393d;" vertex="1" parent="xtPBRBsNaYqa5YSmTsiq-33">
          <mxGeometry x="30" y="20" width="120" height="60" as="geometry" />
        </mxCell>
      </root>
    </mxGraphModel>
  </diagram>
</mxfile>
